name D:\school\WTK\thesis\model\3dpredictsim\Results\batch_windlass\Pog_s1_tmt_aCst_d00_k1000_WL20_ig24.mot
datacolumns 128
datarows 4
range 1.63055960 1.66317080
endheader
time	pelvis_tilt	pelvis_list	pelvis_rotation	pelvis_tx	pelvis_ty	pelvis_tz	hip_flexion_l	hip_adduction_l	hip_rotation_l	hip_flexion_r	hip_adduction_r	hip_rotation_r	knee_angle_l	knee_angle_r	ankle_angle_l	ankle_angle_r	subtalar_angle_l	subtalar_angle_r	tmt_angle_l	tmt_angle_r	mtp_angle_l	mtp_angle_r	lumbar_extension	lumbar_bending	lumbar_rotation	arm_flex_l	arm_add_l	arm_rot_l	arm_flex_r	arm_add_r	arm_rot_r	elbow_flex_l	elbow_flex_r	pro_sup_l	pro_sup_r	glut_med1_l/activation	glut_med2_l/activation	glut_med3_l/activation	glut_min1_l/activation	glut_min2_l/activation	glut_min3_l/activation	semimem_l/activation	semiten_l/activation	bifemlh_l/activation	bifemsh_l/activation	sar_l/activation	add_long_l/activation	add_brev_l/activation	add_mag1_l/activation	add_mag2_l/activation	add_mag3_l/activation	tfl_l/activation	pect_l/activation	grac_l/activation	glut_max1_l/activation	glut_max2_l/activation	glut_max3_l/activation	iliacus_l/activation	psoas_l/activation	quad_fem_l/activation	gem_l/activation	peri_l/activation	rect_fem_l/activation	vas_med_l/activation	vas_int_l/activation	vas_lat_l/activation	med_gas_l/activation	lat_gas_l/activation	soleus_l/activation	tib_post_l/activation	flex_dig_l/activation	flex_hal_l/activation	tib_ant_l/activation	per_brev_l/activation	per_long_l/activation	per_tert_l/activation	ext_dig_l/activation	ext_hal_l/activation	ercspn_l/activation	intobl_l/activation	extobl_l/activation	glut_med1_r/activation	glut_med2_r/activation	glut_med3_r/activation	glut_min1_r/activation	glut_min2_r/activation	glut_min3_r/activation	semimem_r/activation	semiten_r/activation	bifemlh_r/activation	bifemsh_r/activation	sar_r/activation	add_long_r/activation	add_brev_r/activation	add_mag1_r/activation	add_mag2_r/activation	add_mag3_r/activation	tfl_r/activation	pect_r/activation	grac_r/activation	glut_max1_r/activation	glut_max2_r/activation	glut_max3_r/activation	iliacus_r/activation	psoas_r/activation	quad_fem_r/activation	gem_r/activation	peri_r/activation	rect_fem_r/activation	vas_med_r/activation	vas_int_r/activation	vas_lat_r/activation	med_gas_r/activation	lat_gas_r/activation	soleus_r/activation	tib_post_r/activation	flex_dig_r/activation	flex_hal_r/activation	tib_ant_r/activation	per_brev_r/activation	per_long_r/activation	per_tert_r/activation	ext_dig_r/activation	ext_hal_r/activation	ercspn_r/activation	intobl_r/activation	extobl_r/activation	
          1.63055960	         -2.93017628	          1.88102793	         -5.69492916	          2.03819951	          0.85986921	          0.00167405	         31.91589518	          2.39662462	         -2.48957133	        -17.66124691	         -1.67674706	          7.48985977	        -16.93432653	         -8.10110279	          5.91583540	          1.03100781	         -0.07457166	         11.98602343	         -0.18361119	         -4.57245961	          0.86939198	         25.26990670	         -1.45707866	         -0.04177971	          1.95240367	         -9.18297812	        -13.57717887	          7.20463440	          6.31402780	        -13.45442958	         16.21917355	         16.22431480	         35.93299656	         86.51662706	         86.51662706	          0.06139633	          0.06975054	          0.05000048	          0.05000083	          0.05000137	          0.05014742	          0.05203745	          0.05905972	          0.05956902	          0.05000219	          0.05000082	          0.09179356	          0.12137348	          0.16871633	          0.16521419	          0.11624301	          0.05905670	          0.05000737	          0.05906539	          0.05905975	          0.05905952	          0.10502759	          0.05113148	          0.06002264	          0.25295076	          0.05000070	          0.05000169	          0.05000149	          0.08602229	          0.09619667	          0.07369375	          0.05000017	          0.05000060	          0.05578973	          0.05905840	          0.05906749	          0.05906432	          0.47931066	          0.36734028	          0.21882744	          0.08410285	          0.54527851	          0.21495469	          0.05723858	          0.12018345	          0.13029841	          0.34126645	          0.10605244	          0.06029828	          0.34703729	          0.23203603	          0.10851641	          0.05002494	          0.05000205	          0.05000125	          0.07798597	          0.09975518	          0.06170841	          0.05000146	          0.05000177	          0.05000616	          0.05905441	          0.28839794	          0.05000339	          0.05000113	          0.05000914	          0.05000795	          0.05000718	          0.30616350	          0.52281144	          0.05000033	          0.05000165	          0.05000098	          0.22059873	          0.05015138	          0.05936984	          0.06892442	          0.30502282	          0.39626661	          0.26927131	          0.23848032	          0.23748557	          0.31259293	          0.05000004	          0.10265328	          0.18830153	          0.05000043	          0.05000009	          0.05000026	          0.05000002	          0.05000025	          0.05000012	
          1.64143000	         -2.92719812	          1.97373159	         -5.96620202	          2.05459717	          0.85901793	          0.00147754	         31.26255908	          2.77558152	         -2.26599268	        -17.46573708	         -1.97559208	          7.24311814	        -16.37110338	        -10.05813503	          5.59457895	          0.10690730	         -0.56580268	         12.94043655	         -0.23215414	         -5.04858395	          1.09398840	         26.38637436	         -1.26365630	         -0.28402243	          2.03004907	        -10.22751966	        -13.56724013	          7.04224010	          6.11944726	        -13.46807035	         16.50495189	         16.10273564	         37.01848395	         86.51662706	         86.51662706	          0.05197943	          0.05905276	          0.24439708	          0.05905888	          0.05905868	          0.05000282	          0.05000087	          0.05000106	          0.05906203	          0.05000034	          0.05000621	          0.11494805	          0.28304951	          0.21412032	          0.18013094	          0.12797133	          0.05000030	          0.08235146	          0.05000650	          0.05000115	          0.05000083	          0.17002715	          0.05905956	          0.05341400	          0.21459616	          0.20752928	          0.13700225	          0.06456755	          0.18675397	          0.18141165	          0.15715989	          0.05039035	          0.05000080	          0.05444955	          0.05000006	          0.05000769	          0.05000506	          0.62600993	          0.34075147	          0.18526327	          0.46651468	          0.62566649	          0.36424206	          0.05097302	          0.10174923	          0.11031271	          0.28892278	          0.08978572	          0.05104962	          0.29380761	          0.19644553	          0.09187181	          0.05000397	          0.05000037	          0.05000032	          0.06602421	          0.08445542	          0.12366749	          0.14131328	          0.05000957	          0.05000486	          0.05000092	          0.24416277	          0.11771755	          0.05001597	          0.05000387	          0.05000202	          0.05000155	          0.25920390	          0.48281709	          0.05000114	          0.05000260	          0.05000195	          0.18941973	          0.13142826	          0.05026785	          0.09174713	          0.25823716	          0.33548562	          0.22796936	          0.20190151	          0.20106018	          0.26464658	          0.05000004	          0.08690798	          0.15941919	          0.05000024	          0.05000007	          0.05000027	          0.05000020	          0.05415705	          0.05000013	
          1.65230040	         -2.91965026	          2.06632027	         -6.21038014	          2.07127947	          0.85804802	          0.00128592	         30.47992892	          3.13389549	         -1.97684047	        -17.18502532	         -2.26323056	          6.98339255	        -16.40764340	        -12.17800548	          5.11121882	         -0.93197762	         -1.07731375	         13.83974569	         -0.33065337	         -5.46672790	          1.36686907	         27.21326565	         -1.05068357	         -0.53532109	          2.09858427	        -11.27278800	        -13.55942513	          6.92737307	          5.84798679	        -13.48580807	         16.72383736	         15.98081023	         38.06741059	         86.51662706	         86.51662706	          0.05000009	          0.05000017	          0.20691067	          0.05000029	          0.05000025	          0.05000035	          0.05000061	          0.05000077	          0.05000306	          0.05000024	          0.05000073	          0.09731713	          0.23963497	          0.31048401	          0.25076056	          0.15335114	          0.05000162	          0.06972492	          0.12044332	          0.08847219	          0.12583243	          0.14394805	          0.05000107	          0.05000091	          0.30877936	          0.17569768	          0.11598841	          0.05905882	          0.21663960	          0.22627117	          0.18893361	          0.05905876	          0.05905889	          0.05905971	          0.05905866	          0.05906449	          0.05906208	          0.55036336	          0.38272442	          0.20795283	          0.43319904	          0.58790336	          0.30837337	          0.05000002	          0.08614253	          0.09339250	          0.24460678	          0.07601405	          0.05036911	          0.24874246	          0.16631403	          0.07778021	          0.05000798	          0.05000160	          0.05000360	          0.05589722	          0.07150185	          0.21391709	          0.27843015	          0.06977006	          0.05906368	          0.05906816	          0.20671239	          0.09966441	          0.05000748	          0.05015767	          0.05903692	          0.05905761	          0.21944635	          0.44717085	          0.05905845	          0.05904845	          0.05000044	          0.16036589	          0.11127517	          0.14908396	          0.13532763	          0.21862767	          0.28402746	          0.19300247	          0.17093308	          0.17022103	          0.22405417	          0.06283269	          0.07357781	          0.14391754	          0.05000028	          0.10636830	          0.05000128	          0.05827071	          0.05905878	          0.06532910	
          1.66317080	         -2.90891700	          2.16495769	         -6.42219850	          2.08811436	          0.85695523	          0.00110442	         29.52976881	          3.44879263	         -1.66855634	        -16.81715023	         -2.53921910	          6.71358483	        -16.70362347	        -14.45326536	          4.94408810	         -2.02453808	         -1.61391345	         14.64735021	         -1.01611778	         -5.78692395	          1.47791285	         27.52446534	         -0.82953929	         -0.80032629	          2.15521978	        -12.28257931	        -13.55971827	          6.89888224	          5.51801212	        -13.50359844	         16.87566097	         15.82585706	         39.07444451	         86.51662706	         86.51662706	          0.26497532	          0.28507003	          0.39320425	          0.28125049	          0.17791626	          0.18713473	          0.08542523	          0.10213300	          0.08612015	          0.06680715	          0.05000745	          0.08239031	          0.20287884	          0.26286101	          0.21229853	          0.14697424	          0.05000053	          0.05903153	          0.10197002	          0.22103018	          0.18103371	          0.12187245	          0.05000048	          0.05000044	          0.26141794	          0.14874879	          0.21794724	          0.05000029	          0.18341093	          0.19157108	          0.15995468	          0.05000017	          0.05000032	          0.05000092	          0.05000003	          0.05000757	          0.05000407	          0.65145036	          0.36944773	          0.17872965	          0.67136105	          0.67234837	          0.43282431	          0.05298705	          0.08731576	          0.07906758	          0.27957533	          0.06435474	          0.05000004	          0.29224724	          0.14080429	          0.06585006	          0.06639813	          0.05000034	          0.05000022	          0.05000079	          0.06054098	          0.19318073	          0.23572431	          0.05906881	          0.05000530	          0.05000843	          0.23170460	          0.08968684	          0.05000082	          0.05000097	          0.05000058	          0.05000044	          0.18842197	          0.42031260	          0.05000008	          0.05000032	          0.05000023	          0.13576856	          0.09420745	          0.12621697	          0.11457063	          0.18509365	          0.24046217	          0.16339895	          0.14471474	          0.14411210	          0.18968802	          0.15128669	          0.14995436	          0.16459445	          0.27103909	          0.21810234	          0.13762678	          0.07772126	          0.05000011	          0.05530869	
